# xmcd
#
# Track frame offsets: 
#        150
#        17483
#        36610
#        53100
#        66357
#        80010
#        109552
#        129725
#        151205
#        167597
#        186334
#        198769
#        218982
#        243493
#
# Disc length: 3525 seconds
#
# Revision: 0
# Processed by: cddbd v1.5.2PL0 Copyright (c) Steve Scherf et al.
# Submitted via: ExactAudioCopy v1.3
#
DISCID=c30dc30e
DTITLE=Skyla Burrell Blues Band - Livin' Day To Day
DYEAR=2006
DGENRE=Electric Blues, Rockin' Blues
TTITLE0=Little Bit Of Your Love
TTITLE1=Too Much
TTITLE2=Dirt Poor
TTITLE3=Rockin' In Memphis
TTITLE4=Fly Cat Daddy
TTITLE5=I'm Going Down
TTITLE6=Livin' Day To Day
TTITLE7=Play Me Like A Fool
TTITLE8=Low Down Dirty Game
TTITLE9=Come In
TTITLE10=Two Time Dirty Dog
TTITLE11=Need Your Love Baby
TTITLE12=Don't Let Me Go
TTITLE13=Shot In The Dark
EXTD=
EXTT0=
EXTT1=
EXTT2=
EXTT3=
EXTT4=
EXTT5=
EXTT6=
EXTT7=
EXTT8=
EXTT9=
EXTT10=
EXTT11=
EXTT12=
EXTT13=
PLAYORDER=
